<svg id="Layer_1" data-name="Layer 1" xmlns="http://www.w3.org/2000/svg" xmlns:xlink="http://www.w3.org/1999/xlink" viewBox="0 0 1921 1311"><defs><style>.cls-1{fill:#3f64fd;}.cls-2{fill:url(#linear-gradient);}.cls-3{fill:url(#linear-gradient-2);}.cls-4{fill:url(#linear-gradient-3);}.cls-5{fill:url(#linear-gradient-4);}</style><linearGradient id="linear-gradient" x1="88.09" y1="1331.13" x2="572.08" y2="970.87" gradientTransform="matrix(1, 0, 0, -1, 0, 1312)" gradientUnits="userSpaceOnUse"><stop offset="0.01" stop-color="#14c0ff" stop-opacity="0.4"/><stop offset="1" stop-color="#3f64fd"/></linearGradient><linearGradient id="linear-gradient-2" x1="-0.91" y1="617.94" x2="401.83" y2="219.48" gradientTransform="matrix(1, 0, 0, -1, 1, 1312)" xlink:href="#linear-gradient"/><linearGradient id="linear-gradient-3" x1="1718.91" y1="1003.89" x2="1435.82" y2="1239.14" xlink:href="#linear-gradient"/><linearGradient id="linear-gradient-4" x1="1852" y1="247.54" x2="1126.32" y2="801.77" gradientTransform="matrix(1, 0, 0, -1, 1, 1312)" xlink:href="#linear-gradient"/></defs><title>Accuracy-heading-main</title><path class="cls-1" d="M1,0V857s-32,220,349,223,1265,0,1265,0,304-30,306,231V0Z"/><polygon class="cls-2" points="0 0.31 0 94.44 465.05 512.48 726.5 270.5 451.01 0 173 0 0 0.31"/><path class="cls-3" d="M2,458.89V856s-32,220,349,223c77.88.61,176.78,1,284.84,1.16Z"/><polygon class="cls-4" points="1617.5 458 1890.5 221 1630.52 0.5 1119.92 0.5 1617.5 458"/><path class="cls-5" d="M1360.5,410.5l-317,252L1510,1080.32c65.69-.19,105-.32,105-.32s304-30,306,231V938Z"/></svg>