<svg id="Layer_1" data-name="Layer 1" xmlns="http://www.w3.org/2000/svg" xmlns:xlink="http://www.w3.org/1999/xlink" viewBox="0 0 269 657.88"><defs><style>.cls-1{fill:url(#linear-gradient);}.cls-2{fill:url(#linear-gradient-2);}.cls-3{fill:url(#linear-gradient-3);}</style><linearGradient id="linear-gradient" x1="2992.32" y1="3219.65" x2="3128.16" y2="2897.03" gradientTransform="translate(3843 3569.06) rotate(180)" gradientUnits="userSpaceOnUse"><stop offset="0.01" stop-color="#14c0ff" stop-opacity="0.4"/><stop offset="1" stop-color="#3f64fd"/></linearGradient><linearGradient id="linear-gradient-2" x1="3049.12" y1="3380.86" x2="3200.88" y2="3020.43" xlink:href="#linear-gradient"/><linearGradient id="linear-gradient-3" x1="2986.07" y1="3497.08" x2="3114.8" y2="3191.34" xlink:href="#linear-gradient"/></defs><title>Bubble-effect</title><path class="cls-1" d="M673,524.56A195.65,195.65,0,0,1,818,335.65V713.47A195.28,195.28,0,0,1,673,524.56Z" transform="translate(-549 -55.59)"/><path class="cls-2" d="M549,379.56c0-94.37,66.87-173.13,155.81-191.47A196.61,196.61,0,0,1,818,198.35V560.77A195.5,195.5,0,0,1,549,379.56Z" transform="translate(-549 -55.59)"/><path class="cls-3" d="M699,235.56a195.31,195.31,0,0,1,119-180V415.53a195.68,195.68,0,0,1-119-180Z" transform="translate(-549 -55.59)"/></svg>