<svg id="Layer_1" data-name="Layer 1" xmlns="http://www.w3.org/2000/svg" xmlns:xlink="http://www.w3.org/1999/xlink" viewBox="0 0 549 494.85"><defs><style>.cls-1,.cls-2,.cls-3{fill:none;}.cls-1,.cls-2,.cls-3,.cls-4{stroke:#000;stroke-miterlimit:10;}.cls-1{stroke-width:3px;}.cls-2{stroke-width:0.5px;}.cls-3{stroke-width:5px;}.cls-4{stroke-width:2px;fill:url(#linear-gradient);}</style><linearGradient id="linear-gradient" x1="563.85" y1="495.83" x2="561.99" y2="701.78" gradientUnits="userSpaceOnUse"><stop offset="0" stop-color="#3f64fd"/><stop offset="1" stop-color="#5a81ff" stop-opacity="0.2"/></linearGradient></defs><title>Graph</title><polyline class="cls-1" points="545.87 1.88 545.87 493.35 13.64 493.35 0 493.35"/><line class="cls-2" x1="486.78" y1="493.35" x2="486.78" y2="1.88"/><line class="cls-2" x1="419.25" y1="491.47" x2="419.25"/><line class="cls-2" x1="352.97" y1="493.35" x2="352.97" y2="1.88"/><line class="cls-2" x1="281.69" y1="491.47" x2="281.69"/><line class="cls-2" x1="207.91" y1="492.72" x2="207.91" y2="1.25"/><line class="cls-2" x1="134.12" y1="493.35" x2="134.12" y2="1.88"/><line class="cls-2" x1="69.72" y1="491.47" x2="69.72"/><line class="cls-2" x1="0.31" y1="424.26" x2="545.87" y2="424.26"/><line class="cls-2" x1="0.31" y1="351.1" x2="545.87" y2="351.1"/><line class="cls-2" x1="3.44" y1="281.69" x2="549" y2="281.69"/><line class="cls-2" x1="2.19" y1="217.29" x2="547.75" y2="217.29"/><line class="cls-2" x1="2.19" y1="152.88" x2="547.75" y2="152.88"/><line class="cls-2" x1="2.19" y1="94.11" x2="547.75" y2="94.11"/><line class="cls-2" x1="0.31" y1="35.95" x2="545.87" y2="35.95"/><path class="cls-3" d="M295.69,693.69S360.1,499.22,588.33,494.22,828.43,236.6,828.43,236.6" transform="translate(-286 -200.65)"/><path class="cls-4" d="M830.31,236.6S814.68,489.22,586.45,494.22,293.82,693.69,293.82,693.69H830.31Z" transform="translate(-286 -200.65)"/></svg>