<svg id="Layer_1" data-name="Layer 1" xmlns="http://www.w3.org/2000/svg" viewBox="0 0 1014 606.5"><defs><style>.cls-1{fill:#fff;}.cls-1,.cls-2,.cls-3,.cls-4,.cls-5{stroke:#000;stroke-miterlimit:10;}.cls-1,.cls-2{stroke-width:2px;}.cls-2{fill:#bbb;}.cls-3{fill:#ff3b47;}.cls-4{fill:#ffc100;}.cls-5{fill:#049931;}</style></defs><title>Mac-image</title><path class="cls-1" d="M1189,138.44V628.56A57.44,57.44,0,0,1,1131.56,686H234.44A57.44,57.44,0,0,1,177,628.56V138.44a57,57,0,0,1,.36-6.44H1188.64A57,57,0,0,1,1189,138.44Z" transform="translate(-176 -80.5)"/><path class="cls-2" d="M1188.64,132.5H177.36a57.45,57.45,0,0,1,57.08-51h897.12A57.45,57.45,0,0,1,1188.64,132.5Z" transform="translate(-176 -80.5)"/><circle class="cls-3" cx="50.5" cy="26" r="12"/><circle class="cls-4" cx="90.5" cy="26" r="12"/><circle class="cls-5" cx="131.5" cy="26" r="12"/></svg>