<svg id="Layer_1" data-name="Layer 1" xmlns="http://www.w3.org/2000/svg" xmlns:xlink="http://www.w3.org/1999/xlink" viewBox="0 0 721.96 631.41"><defs><style>.cls-1{fill:url(#linear-gradient);}.cls-2{fill:url(#linear-gradient-2);}.cls-3{fill:url(#linear-gradient-3);}.cls-4{fill:url(#linear-gradient-4);}.cls-5{fill:url(#linear-gradient-5);}.cls-6{fill:url(#linear-gradient-6);}.cls-7{fill:url(#linear-gradient-7);}.cls-8{fill:url(#linear-gradient-8);}.cls-9{fill:url(#linear-gradient-9);}.cls-10{fill:url(#linear-gradient-10);}.cls-11{fill:url(#linear-gradient-11);}.cls-12{fill:url(#linear-gradient-12);}.cls-13{fill:url(#linear-gradient-13);}.cls-14{fill:url(#linear-gradient-14);}.cls-15{fill:url(#linear-gradient-15);}.cls-16{fill:url(#linear-gradient-16);}.cls-17{fill:url(#linear-gradient-17);}.cls-18{fill:url(#linear-gradient-18);}.cls-19{fill:url(#linear-gradient-19);}.cls-20{fill:url(#linear-gradient-20);}.cls-21{fill:url(#linear-gradient-21);}.cls-22{fill:url(#linear-gradient-22);}.cls-23{fill:url(#linear-gradient-23);}</style><linearGradient id="linear-gradient" x1="423.6" y1="800.66" x2="492.36" y2="633.39" gradientTransform="translate(14.7 -297.17)" gradientUnits="userSpaceOnUse"><stop offset="0.01" stop-color="#14c0ff" stop-opacity="0.4"/><stop offset="1" stop-color="#3f64fd"/></linearGradient><linearGradient id="linear-gradient-2" x1="205.4" y1="727.48" x2="293.19" y2="513.94" gradientTransform="translate(113.86 -402.92)" xlink:href="#linear-gradient"/><linearGradient id="linear-gradient-3" x1="220.07" y1="763.34" x2="347.87" y2="452.47" gradientTransform="translate(114.63 -379.62)" xlink:href="#linear-gradient"/><linearGradient id="linear-gradient-4" x1="289.67" y1="697.98" x2="347.63" y2="557" gradientTransform="translate(96.01 -362.76)" xlink:href="#linear-gradient"/><linearGradient id="linear-gradient-5" x1="292.86" y1="502.97" x2="344.99" y2="376.15" gradientTransform="translate(208.44 -325.21)" xlink:href="#linear-gradient"/><linearGradient id="linear-gradient-6" x1="287.54" y1="792.69" x2="417.36" y2="476.91" gradientTransform="translate(86.17 -342.89)" xlink:href="#linear-gradient"/><linearGradient id="linear-gradient-7" x1="317.45" y1="738.9" x2="459.11" y2="394.32" gradientTransform="translate(118.6 -308.97)" xlink:href="#linear-gradient"/><linearGradient id="linear-gradient-8" x1="375.46" y1="690.19" x2="470.73" y2="458.44" gradientTransform="translate(107.06 -289.66)" xlink:href="#linear-gradient"/><linearGradient id="linear-gradient-9" x1="410.35" y1="589.77" x2="505.62" y2="358.03" gradientTransform="translate(160.22 -248.81)" xlink:href="#linear-gradient"/><linearGradient id="linear-gradient-10" x1="1185.53" y1="834.51" x2="1270.72" y2="627.28" gradientTransform="translate(-489.87 -328.14)" xlink:href="#linear-gradient"/><linearGradient id="linear-gradient-11" x1="1199.77" y1="869.3" x2="1323.79" y2="567.62" gradientTransform="translate(-557.92 -325.89)" xlink:href="#linear-gradient"/><linearGradient id="linear-gradient-12" x1="1267.31" y1="805.88" x2="1323.55" y2="669.06" gradientTransform="translate(-607.15 -380.27)" xlink:href="#linear-gradient"/><linearGradient id="linear-gradient-13" x1="1270.4" y1="616.63" x2="1321" y2="493.57" gradientTransform="translate(-716.79 -51.97)" xlink:href="#linear-gradient"/><linearGradient id="linear-gradient-14" x1="1265.25" y1="897.78" x2="1391.23" y2="591.34" gradientTransform="translate(-665.18 -408.98)" xlink:href="#linear-gradient"/><linearGradient id="linear-gradient-15" x1="1294.27" y1="845.58" x2="1431.74" y2="511.2" gradientTransform="translate(-764.21 -314.31)" xlink:href="#linear-gradient"/><linearGradient id="linear-gradient-16" x1="1350.56" y1="798.31" x2="1443.01" y2="573.42" gradientTransform="translate(-820.59 -348)" xlink:href="#linear-gradient"/><linearGradient id="linear-gradient-17" x1="650.03" y1="703.23" x2="737.81" y2="489.69" gradientTransform="translate(39.93 -131.96)" xlink:href="#linear-gradient"/><linearGradient id="linear-gradient-18" x1="664.7" y1="739.08" x2="792.5" y2="428.21" gradientTransform="translate(40.7 -108.66)" xlink:href="#linear-gradient"/><linearGradient id="linear-gradient-19" x1="734.29" y1="673.73" x2="792.25" y2="532.74" gradientTransform="translate(22.08 -91.8)" xlink:href="#linear-gradient"/><linearGradient id="linear-gradient-20" x1="737.48" y1="478.72" x2="789.62" y2="351.9" gradientTransform="translate(134.51 -54.25)" xlink:href="#linear-gradient"/><linearGradient id="linear-gradient-21" x1="732.17" y1="768.44" x2="861.99" y2="452.66" gradientTransform="translate(12.24 -71.93)" xlink:href="#linear-gradient"/><linearGradient id="linear-gradient-22" x1="762.08" y1="714.64" x2="903.73" y2="370.07" gradientTransform="translate(44.67 -38.01)" xlink:href="#linear-gradient"/><linearGradient id="linear-gradient-23" x1="820.08" y1="665.94" x2="915.36" y2="434.19" gradientTransform="translate(33.13 -18.7)" xlink:href="#linear-gradient"/></defs><title>Oval-background</title><rect class="cls-1" x="455.27" y="323.51" width="34.82" height="192.7" rx="17.41" ry="17.41" transform="translate(63.03 -252.05) rotate(36.77)"/><text x="-282.3" y="-52.64"></text><text x="-282.3" y="-52.64"></text><rect class="cls-2" x="345.74" y="94.39" width="34.82" height="246.8" rx="17.41" ry="17.41" transform="translate(-79.7 -226.69) rotate(36.77)"/><text x="-282.3" y="-52.64"></text><rect class="cls-3" x="381.19" y="48" width="34.82" height="360.57" rx="17.41" ry="17.41" transform="translate(-66.37 -245.82) rotate(36.77)"/><text x="-282.3" y="-52.64"></text><rect class="cls-4" x="397.25" y="183.74" width="34.82" height="161.97" rx="17.41" ry="17.41" transform="translate(-41.36 -248.18) rotate(36.77)"/><text x="-282.3" y="-52.64"></text><rect class="cls-5" x="509.95" y="41.64" width="34.82" height="145.42" rx="17.41" ry="17.41" transform="translate(-108.95 -345.55) rotate(36.77)"/><text x="-282.3" y="-52.64"></text><path class="cls-6" d="M439.64,109.17h0A17.41,17.41,0,0,1,457,126.58V452.34a17.41,17.41,0,0,1-17.41,17.41H422.23a0,0,0,0,1,0,0V126.58a17.41,17.41,0,0,1,17.41-17.41Z" transform="translate(-21.59 -258.21) rotate(36.77)"/><text x="-282.3" y="-52.64"></text><rect class="cls-7" x="489.47" y="57.65" width="34.82" height="399.97" rx="17.41" ry="17.41" transform="translate(-27.26 -304.79) rotate(36.77)"/><text x="-282.3" y="-52.64"></text><rect class="cls-8" x="512.74" y="150.61" width="34.82" height="268.08" rx="17.41" ry="17.41" transform="translate(-6.46 -313.35) rotate(36.77)"/><rect class="cls-9" x="600.8" y="91.06" width="34.82" height="268.08" rx="17.41" ry="17.41" transform="matrix(0.8, 0.6, -0.6, 0.8, -24.59, -377.9)"/><text x="-282.3" y="-52.64"></text><text x="-282.3" y="-52.64"></text><rect class="cls-10" x="721.36" y="283" width="33.79" height="239.5" rx="16.89" ry="16.89" transform="translate(806.28 1114.63) rotate(-143.23)"/><text x="-282.3" y="-52.64"></text><rect class="cls-11" x="686.97" y="217.61" width="33.79" height="349.91" rx="16.89" ry="16.89" transform="translate(750.43 1075.7) rotate(-143.23)"/><text x="-282.3" y="-52.64"></text><rect class="cls-12" x="671.39" y="278.61" width="33.79" height="157.18" rx="16.89" ry="16.89" transform="translate(743.54 1002.67) rotate(-143.23)"/><text x="-282.3" y="-52.64"></text><rect class="cls-13" x="562.01" y="432.57" width="33.79" height="141.12" rx="16.89" ry="16.89" transform="translate(459.2 1200.04) rotate(-143.23)"/><text x="-282.3" y="-52.64"></text><path class="cls-14" d="M664,158.24h0a16.89,16.89,0,0,1,16.89,16.89V491.26A16.89,16.89,0,0,1,664,508.15H647.14a0,0,0,0,1,0,0v-333A16.89,16.89,0,0,1,664,158.24Z" transform="translate(714.24 944.94) rotate(-143.23)"/><text x="-282.3" y="-52.64"></text><rect class="cls-15" x="581.89" y="170.01" width="33.79" height="388.14" rx="16.89" ry="16.89" transform="translate(578.24 961.5) rotate(-143.23)"/><text x="-282.3" y="-52.64"></text><rect class="cls-16" x="559.3" y="207.79" width="33.79" height="260.15" rx="16.89" ry="16.89" transform="translate(553.24 900.77) rotate(-143.23)"/><text x="-282.3" y="-52.64"></text><text x="-282.3" y="-52.64"></text><rect class="cls-17" x="716.44" y="341.1" width="34.82" height="246.8" rx="17.41" ry="17.41" transform="translate(141.71 -399.5) rotate(36.77)"/><text x="-282.3" y="-52.64"></text><rect class="cls-18" x="751.89" y="294.7" width="34.82" height="360.57" rx="17.41" ry="17.41" transform="translate(155.04 -418.63) rotate(36.77)"/><text x="-282.3" y="-52.64"></text><rect class="cls-19" x="767.94" y="430.45" width="34.82" height="161.97" rx="17.41" ry="17.41" transform="translate(180.05 -420.99) rotate(36.77)"/><text x="-282.3" y="-52.64"></text><rect class="cls-20" x="880.65" y="288.35" width="34.82" height="145.42" rx="17.41" ry="17.41" transform="translate(112.46 -518.36) rotate(36.77)"/><text x="-282.3" y="-52.64"></text><path class="cls-21" d="M810.33,355.88h0a17.41,17.41,0,0,1,17.41,17.41V699a17.41,17.41,0,0,1-17.41,17.41H792.93a0,0,0,0,1,0,0V373.29A17.41,17.41,0,0,1,810.33,355.88Z" transform="translate(199.82 -431.02) rotate(36.77)"/><text x="-282.3" y="-52.64"></text><rect class="cls-22" x="860.16" y="304.36" width="34.82" height="399.97" rx="17.41" ry="17.41" transform="translate(194.15 -477.6) rotate(36.77)"/><text x="-282.3" y="-52.64"></text><rect class="cls-23" x="883.44" y="397.32" width="34.82" height="268.08" rx="17.41" ry="17.41" transform="translate(214.95 -486.16) rotate(36.77)"/></svg>