<svg id="Layer_1" data-name="Layer 1" xmlns="http://www.w3.org/2000/svg" viewBox="0 0 919.5 746.59"><defs><style>.cls-1{fill:none;}.cls-1,.cls-2,.cls-3,.cls-4,.cls-5{stroke:#000;stroke-miterlimit:10;}.cls-1,.cls-2,.cls-3,.cls-4{stroke-width:2px;}.cls-2{fill:#155faf;}.cls-3,.cls-5{fill:#3f64fd;}.cls-4{fill:#5a81ff;}.cls-5{stroke-width:0.75px;}</style></defs><title>Safe</title><polygon class="cls-1" points="462.69 264.15 462.67 264.17 462.65 264.15 462.69 264.15"/><path class="cls-2" d="M824.75,367.87A165.18,165.18,0,0,0,787,317.5q-2.06-1.87-4.18-3.66a164.14,164.14,0,0,0-96.64-38.79l0,0,0,0c-3.27-.19-6.58-.29-9.9-.29a164,164,0,0,0-96.37,31.1,160,160,0,0,0-13.43,10.78,164.86,164.86,0,1,0,258.3,51.23Zm-148,183.74A111.44,111.44,0,1,1,788.19,440.17,111.44,111.44,0,0,1,676.75,551.61Z" transform="translate(-223.5 -10.91)"/><path class="cls-3" d="M836.17,298.25a214.82,214.82,0,0,1-11.42,69.62A165.18,165.18,0,0,0,787,317.5q.18-3.56.18-7.16v-.2c0-34.6-11.59-66-30.46-89.25-20.12-24.74-48.5-40.17-80-40.17-23.06,0-44.47,8.29-62.18,22.45-25.82,20.65-43.78,53.8-47.52,92q-.74,7.37-.74,14.95,0,3.27.14,6.5a165.45,165.45,0,0,0-38.7,51.23,215.15,215.15,0,0,1-11.41-69.12v-.5c0-49.49,16.37-94.5,43.12-128,29.18-36.55,70.71-59.4,116.79-59.4,52,0,98.16,29.06,127.35,74.06q1.24,1.92,2.46,3.89a205.16,205.16,0,0,1,28.49,82.69c0,.29.08.59.11.88A222.52,222.52,0,0,1,836.17,298.25Z" transform="translate(-223.5 -10.91)"/><path class="cls-1" d="M824.75,367.87a214.82,214.82,0,0,0,11.42-69.62,222.52,222.52,0,0,0-1.51-25.88c0-.29-.07-.59-.11-.88a205.16,205.16,0,0,0-28.49-82.69q-1.21-2-2.46-3.89c-29.19-45-75.37-74.06-127.35-74.06-46.08,0-87.61,22.85-116.79,59.4-26.75,33.5-43.12,78.51-43.12,128v.5a215.15,215.15,0,0,0,11.41,69.12,164.91,164.91,0,1,0,297,0Zm-257.7-72.68c3.74-38.22,21.7-71.37,47.52-92,17.71-14.16,39.12-22.45,62.18-22.45,31.48,0,59.86,15.43,80,40.17,18.87,23.22,30.46,54.65,30.46,89.25v.2q0,3.6-.18,7.16-2.06-1.87-4.18-3.66a164.14,164.14,0,0,0-96.64-38.79h0c-3.27-.19-6.58-.29-9.9-.29a164,164,0,0,0-96.37,31.1,160,160,0,0,0-13.43,10.78q-.13-3.22-.14-6.5Q566.31,302.56,567.05,295.19Zm109.7,256.42A111.44,111.44,0,1,1,788.19,440.17,111.44,111.44,0,0,1,676.75,551.61Z" transform="translate(-223.5 -10.91)"/><path class="cls-3" d="M1085.55,11.91H281A56.44,56.44,0,0,0,224.5,68.35V665.07A56.45,56.45,0,0,0,281,721.52h804.6A56.45,56.45,0,0,0,1142,665.07V68.35A56.44,56.44,0,0,0,1085.55,11.91ZM1091,623.22a56.45,56.45,0,0,1-56.45,56.45H334.92a56.45,56.45,0,0,1-56.45-56.45V553.61h-10a6,6,0,0,1-6-6v-103a6,6,0,0,1,6-6h10V280.76h-10a6,6,0,0,1-6-6v-103a6,6,0,0,1,6-6h10V107.67a56.46,56.46,0,0,1,56.45-56.45h699.66A56.46,56.46,0,0,1,1091,107.67Z" transform="translate(-223.5 -10.91)"/><path class="cls-4" d="M293.46,519.63v28a6,6,0,0,1-6,6H268.45a6,6,0,0,1-6-6v-28Z" transform="translate(-223.5 -10.91)"/><path class="cls-4" d="M293.46,444.64v25h-31v-25a6,6,0,0,1,6-6H287.5A6,6,0,0,1,293.46,444.64Z" transform="translate(-223.5 -10.91)"/><rect class="cls-4" x="38.98" y="458.75" width="30.98" height="49.97"/><path class="cls-4" d="M1034.58,51.22H334.92a56.46,56.46,0,0,0-56.45,56.45v58.15h9a6,6,0,0,1,6,6v103a6,6,0,0,1-6,6h-9V438.67h9a6,6,0,0,1,6,6v103a6,6,0,0,1-6,6h-9v69.61a56.45,56.45,0,0,0,56.45,56.45h699.66A56.45,56.45,0,0,0,1091,623.22V107.67A56.46,56.46,0,0,0,1034.58,51.22ZM676.25,604.58a165,165,0,0,1-148.5-236.71,215.15,215.15,0,0,1-11.41-69.12v-.5c0-49.49,16.37-94.5,43.12-128,29.18-36.55,70.71-59.4,116.79-59.4,52,0,98.16,29.06,127.35,74.06q1.24,1.92,2.46,3.89a205.16,205.16,0,0,1,28.49,82.69c0,.29.08.59.11.88a222.52,222.52,0,0,1,1.51,25.88,214.82,214.82,0,0,1-11.42,69.62,165,165,0,0,1-148.5,236.71Z" transform="translate(-223.5 -10.91)"/><rect class="cls-1" x="353.31" y="423.96" width="65.23" height="12.61" rx="6" ry="6"/><path class="cls-1" d="M641.36,463.09,592.57,483.6a6.19,6.19,0,0,1-8.12-3.42,6.42,6.42,0,0,1-.47-2.41,6.27,6.27,0,0,1,3.83-5.82l48.8-20.51a6.17,6.17,0,0,1,8.11,3.4A6.35,6.35,0,0,1,641.36,463.09Z" transform="translate(-223.5 -10.91)"/><path class="cls-1" d="M644.72,427.5a6.17,6.17,0,0,1-8.11,3.41l-48.8-20.51a6.34,6.34,0,0,1-3.36-8.24,6.21,6.21,0,0,1,5.75-3.89,6,6,0,0,1,2.37.48l48.79,20.5A6.35,6.35,0,0,1,644.72,427.5Z" transform="translate(-223.5 -10.91)"/><path class="cls-1" d="M652.36,475.35,615,513.25a6.14,6.14,0,0,1-8.79,0,6.36,6.36,0,0,1,0-8.91l37.34-37.9a6.16,6.16,0,0,1,8.79,0A6.36,6.36,0,0,1,652.36,475.35Z" transform="translate(-223.5 -10.91)"/><path class="cls-1" d="M652.36,415.91a6.17,6.17,0,0,1-8.79,0L606.23,378a6.37,6.37,0,0,1,0-8.92,6.15,6.15,0,0,1,8.79,0L652.36,407A6.37,6.37,0,0,1,652.36,415.91Z" transform="translate(-223.5 -10.91)"/><path class="cls-1" d="M667.14,482.42l-20.21,49.52a6.19,6.19,0,0,1-8.12,3.42,6.33,6.33,0,0,1-3.83-5.83,6.44,6.44,0,0,1,.48-2.42l20.21-49.51a6.17,6.17,0,0,1,8.11-3.42A6.34,6.34,0,0,1,667.14,482.42Z" transform="translate(-223.5 -10.91)"/><path class="cls-1" d="M663.78,408.16a6.17,6.17,0,0,1-8.11-3.42l-20.21-49.51a6.35,6.35,0,0,1,3.35-8.25,6,6,0,0,1,2.37-.48,6.22,6.22,0,0,1,5.75,3.9l20.21,49.52A6.34,6.34,0,0,1,663.78,408.16Z" transform="translate(-223.5 -10.91)"/><rect class="cls-1" x="447.54" y="328.32" width="12.43" height="66.21" rx="6" ry="6"/><rect class="cls-1" x="447.54" y="466" width="12.43" height="66.21" rx="6" ry="6"/><path class="cls-1" d="M715.69,535.36a6,6,0,0,1-2.37.48,6.21,6.21,0,0,1-5.74-3.9l-20.21-49.52a6.34,6.34,0,0,1,3.36-8.24,6.18,6.18,0,0,1,8.11,3.42l20.21,49.51A6.35,6.35,0,0,1,715.69,535.36Z" transform="translate(-223.5 -10.91)"/><path class="cls-1" d="M719.53,352.81a6.44,6.44,0,0,1-.48,2.42l-20.21,49.51a6.18,6.18,0,0,1-8.11,3.42,6.34,6.34,0,0,1-3.36-8.24l20.21-49.52a6.18,6.18,0,0,1,8.11-3.42A6.33,6.33,0,0,1,719.53,352.81Z" transform="translate(-223.5 -10.91)"/><path class="cls-1" d="M748.27,513.25a6.06,6.06,0,0,1-4.38,1.85,6.12,6.12,0,0,1-4.4-1.85l-37.34-37.9a6.36,6.36,0,0,1,0-8.91,6.15,6.15,0,0,1,8.78,0l37.34,37.9A6.36,6.36,0,0,1,748.27,513.25Z" transform="translate(-223.5 -10.91)"/><path class="cls-1" d="M750.09,373.55a6.33,6.33,0,0,1-1.82,4.46l-37.34,37.9a6.16,6.16,0,0,1-8.78,0,6.37,6.37,0,0,1,0-8.92l37.34-37.9a6.13,6.13,0,0,1,8.78,0A6.3,6.3,0,0,1,750.09,373.55Z" transform="translate(-223.5 -10.91)"/><path class="cls-1" d="M770.05,480.18a6.22,6.22,0,0,1-5.74,3.9,6,6,0,0,1-2.37-.48l-48.8-20.51a6.35,6.35,0,0,1-3.35-8.25,6.16,6.16,0,0,1,8.11-3.4L766.69,472A6.33,6.33,0,0,1,770.05,480.18Z" transform="translate(-223.5 -10.91)"/><path class="cls-1" d="M770.52,404.57a6.3,6.3,0,0,1-3.83,5.83L717.9,430.91a6.16,6.16,0,0,1-8.11-3.41,6.35,6.35,0,0,1,3.35-8.25l48.8-20.5a6.17,6.17,0,0,1,8.11,3.41A6.42,6.42,0,0,1,770.52,404.57Z" transform="translate(-223.5 -10.91)"/><rect class="cls-1" x="488.96" y="423.96" width="65.23" height="12.61" rx="6" ry="6"/><path class="cls-3" d="M824.75,367.87a214.82,214.82,0,0,0,11.42-69.62,222.52,222.52,0,0,0-1.51-25.88c0-.29-.07-.59-.11-.88a205.16,205.16,0,0,0-28.49-82.69q-1.21-2-2.46-3.89c-29.19-45-75.37-74.06-127.35-74.06-46.08,0-87.61,22.85-116.79,59.4-26.75,33.5-43.12,78.51-43.12,128v.5a215.15,215.15,0,0,0,11.41,69.12,164.91,164.91,0,1,0,297,0Zm-257.7-72.68c3.74-38.22,21.7-71.37,47.52-92,17.71-14.16,39.12-22.45,62.18-22.45,31.48,0,59.86,15.43,80,40.17,18.87,23.22,30.46,54.65,30.46,89.25v.2q0,3.6-.18,7.16-2.06-1.87-4.18-3.66a164.14,164.14,0,0,0-96.64-38.79h0c-3.27-.19-6.58-.29-9.9-.29a164,164,0,0,0-96.37,31.1,160,160,0,0,0-13.43,10.78q-.13-3.22-.14-6.5Q566.31,302.56,567.05,295.19Zm109.7,256.42A111.44,111.44,0,1,1,788.19,440.17,111.44,111.44,0,0,1,676.75,551.61Z" transform="translate(-223.5 -10.91)"/><path class="cls-4" d="M739.79,348.27a111.44,111.44,0,1,0,48.4,91.9A110.91,110.91,0,0,0,739.79,348.27Zm22.15,50.48a6.17,6.17,0,0,1,8.11,3.41,6.42,6.42,0,0,1,.47,2.41,6.3,6.3,0,0,1-3.83,5.83L717.9,430.91a6.16,6.16,0,0,1-8.11-3.41,6.35,6.35,0,0,1,3.35-8.25Zm-13.67-29.66a6.37,6.37,0,0,1,0,8.92l-37.34,37.9a6.16,6.16,0,0,1-8.78,0,6.37,6.37,0,0,1,0-8.92l37.34-37.9A6.13,6.13,0,0,1,748.27,369.09Zm-60.9,30.83,20.21-49.52a6.18,6.18,0,0,1,8.11-3.42,6.33,6.33,0,0,1,3.84,5.83,6.44,6.44,0,0,1-.48,2.42l-20.21,49.51a6.18,6.18,0,0,1-8.11,3.42A6.34,6.34,0,0,1,687.37,399.92Zm-81.14-30.83a6.15,6.15,0,0,1,8.79,0L652.36,407a6.37,6.37,0,0,1,0,8.92,6.17,6.17,0,0,1-8.79,0L606.23,378A6.37,6.37,0,0,1,606.23,369.09Zm-21.78,33.07a6.21,6.21,0,0,1,5.75-3.89,6,6,0,0,1,2.37.48l48.79,20.5a6.35,6.35,0,0,1,3.36,8.25,6.17,6.17,0,0,1-8.11,3.41l-48.8-20.51A6.34,6.34,0,0,1,584.45,402.16Zm-7.64,39.32v-.62a6,6,0,0,1,6-6h53.25a6,6,0,0,1,6,6v.62a6,6,0,0,1-6,6H582.8A6,6,0,0,1,576.81,441.48Zm15.76,42.12a6.19,6.19,0,0,1-8.12-3.42,6.42,6.42,0,0,1-.47-2.41,6.27,6.27,0,0,1,3.83-5.82l48.8-20.51a6.17,6.17,0,0,1,8.11,3.4,6.35,6.35,0,0,1-3.36,8.25Zm13.66,29.65a6.36,6.36,0,0,1,0-8.91l37.34-37.9a6.16,6.16,0,0,1,8.79,0,6.36,6.36,0,0,1,0,8.91L615,513.25A6.14,6.14,0,0,1,606.23,513.25Zm60.91-30.83-20.21,49.52a6.19,6.19,0,0,1-8.12,3.42,6.33,6.33,0,0,1-3.83-5.83,6.44,6.44,0,0,1,.48-2.42l20.21-49.51a6.17,6.17,0,0,1,8.11-3.42A6.34,6.34,0,0,1,667.14,482.42Zm-3.36-74.26a6.17,6.17,0,0,1-8.11-3.42l-20.21-49.51a6.35,6.35,0,0,1,3.35-8.25,6,6,0,0,1,2.37-.48,6.22,6.22,0,0,1,5.75,3.9l20.21,49.52A6.34,6.34,0,0,1,663.78,408.16Zm19.69,129a6,6,0,0,1-6,6H677a6,6,0,0,1-6-6V482.9a6,6,0,0,1,6-6h.44a6,6,0,0,1,6,6Zm0-137.68a6,6,0,0,1-6,6H677a6,6,0,0,1-6-6V345.22a6,6,0,0,1,6-6h.44a6,6,0,0,1,6,6Zm32.22,135.92a6,6,0,0,1-2.37.48,6.21,6.21,0,0,1-5.74-3.9l-20.21-49.52a6.34,6.34,0,0,1,3.36-8.24,6.18,6.18,0,0,1,8.11,3.42l20.21,49.51A6.35,6.35,0,0,1,715.69,535.36Zm32.58-22.11a6.06,6.06,0,0,1-4.38,1.85,6.12,6.12,0,0,1-4.4-1.85l-37.34-37.9a6.36,6.36,0,0,1,0-8.91,6.15,6.15,0,0,1,8.78,0l37.34,37.9A6.36,6.36,0,0,1,748.27,513.25Zm21.78-33.07a6.22,6.22,0,0,1-5.74,3.9,6,6,0,0,1-2.37-.48l-48.8-20.51a6.35,6.35,0,0,1-3.35-8.25,6.16,6.16,0,0,1,8.11-3.4L766.69,472A6.33,6.33,0,0,1,770.05,480.18Zm1.65-32.7H718.46a6,6,0,0,1-6-6v-.62a6,6,0,0,1,6-6H771.7a6,6,0,0,1,6,6v.62A6,6,0,0,1,771.7,447.48Z" transform="translate(-223.5 -10.91)"/><path class="cls-4" d="M787.19,310.14v.2q0,3.6-.18,7.16-2.06-1.87-4.18-3.66a164.14,164.14,0,0,0-96.64-38.79h0c-3.27-.19-6.58-.29-9.9-.29a164,164,0,0,0-96.37,31.1,160,160,0,0,0-13.43,10.78q-.13-3.22-.14-6.5,0-7.58.74-14.95c3.74-38.22,21.7-71.37,47.52-92,17.71-14.16,39.12-22.45,62.18-22.45,31.48,0,59.86,15.43,80,40.17C775.6,244.11,787.19,275.54,787.19,310.14Z" transform="translate(-223.5 -10.91)"/><rect class="cls-4" x="38.98" y="185.9" width="30.98" height="49.97"/><path class="cls-4" d="M293.46,246.78v28a6,6,0,0,1-6,6H268.45a6,6,0,0,1-6-6v-28Z" transform="translate(-223.5 -10.91)"/><path class="cls-4" d="M293.46,171.79v25h-31v-25a6,6,0,0,1,6-6H287.5A6,6,0,0,1,293.46,171.79Z" transform="translate(-223.5 -10.91)"/><path class="cls-3" d="M478.36,721.52V741a15.55,15.55,0,0,1-15.55,15.55H323A15.55,15.55,0,0,1,307.45,741V721.52Z" transform="translate(-223.5 -10.91)"/><path class="cls-3" d="M1058.05,721.52V741a15.55,15.55,0,0,1-15.55,15.55H902.69A15.55,15.55,0,0,1,887.14,741V721.52Z" transform="translate(-223.5 -10.91)"/><rect class="cls-5" x="447.54" y="328.32" width="12.43" height="66.21" rx="6" ry="6"/><path class="cls-5" d="M663.78,408.16a6.17,6.17,0,0,1-8.11-3.42l-20.21-49.51a6.35,6.35,0,0,1,3.35-8.25,6,6,0,0,1,2.37-.48,6.22,6.22,0,0,1,5.75,3.9l20.21,49.52A6.34,6.34,0,0,1,663.78,408.16Z" transform="translate(-223.5 -10.91)"/><path class="cls-5" d="M652.36,415.91a6.17,6.17,0,0,1-8.79,0L606.23,378a6.37,6.37,0,0,1,0-8.92,6.15,6.15,0,0,1,8.79,0L652.36,407A6.37,6.37,0,0,1,652.36,415.91Z" transform="translate(-223.5 -10.91)"/><path class="cls-5" d="M644.72,427.5a6.17,6.17,0,0,1-8.11,3.41l-48.8-20.51a6.34,6.34,0,0,1-3.36-8.24,6.21,6.21,0,0,1,5.75-3.89,6,6,0,0,1,2.37.48l48.79,20.5A6.35,6.35,0,0,1,644.72,427.5Z" transform="translate(-223.5 -10.91)"/><rect class="cls-5" x="353.31" y="423.96" width="65.23" height="12.61" rx="6" ry="6"/><path class="cls-5" d="M641.36,463.09,592.57,483.6a6.19,6.19,0,0,1-8.12-3.42,6.42,6.42,0,0,1-.47-2.41,6.27,6.27,0,0,1,3.83-5.82l48.8-20.51a6.17,6.17,0,0,1,8.11,3.4A6.35,6.35,0,0,1,641.36,463.09Z" transform="translate(-223.5 -10.91)"/><path class="cls-5" d="M652.36,475.35,615,513.25a6.14,6.14,0,0,1-8.79,0,6.36,6.36,0,0,1,0-8.91l37.34-37.9a6.16,6.16,0,0,1,8.79,0A6.36,6.36,0,0,1,652.36,475.35Z" transform="translate(-223.5 -10.91)"/><path class="cls-5" d="M667.14,482.42l-20.21,49.52a6.19,6.19,0,0,1-8.12,3.42,6.33,6.33,0,0,1-3.83-5.83,6.44,6.44,0,0,1,.48-2.42l20.21-49.51a6.17,6.17,0,0,1,8.11-3.42A6.34,6.34,0,0,1,667.14,482.42Z" transform="translate(-223.5 -10.91)"/><rect class="cls-5" x="447.54" y="466" width="12.43" height="66.21" rx="6" ry="6"/><path class="cls-5" d="M715.69,535.36a6,6,0,0,1-2.37.48,6.21,6.21,0,0,1-5.74-3.9l-20.21-49.52a6.34,6.34,0,0,1,3.36-8.24,6.18,6.18,0,0,1,8.11,3.42l20.21,49.51A6.35,6.35,0,0,1,715.69,535.36Z" transform="translate(-223.5 -10.91)"/><path class="cls-5" d="M748.27,513.25a6.06,6.06,0,0,1-4.38,1.85,6.12,6.12,0,0,1-4.4-1.85l-37.34-37.9a6.36,6.36,0,0,1,0-8.91,6.15,6.15,0,0,1,8.78,0l37.34,37.9A6.36,6.36,0,0,1,748.27,513.25Z" transform="translate(-223.5 -10.91)"/><path class="cls-5" d="M770.05,480.18a6.22,6.22,0,0,1-5.74,3.9,6,6,0,0,1-2.37-.48l-48.8-20.51a6.35,6.35,0,0,1-3.35-8.25,6.16,6.16,0,0,1,8.11-3.4L766.69,472A6.33,6.33,0,0,1,770.05,480.18Z" transform="translate(-223.5 -10.91)"/><rect class="cls-5" x="488.96" y="423.96" width="65.23" height="12.61" rx="6" ry="6"/><path class="cls-5" d="M770.52,404.57a6.3,6.3,0,0,1-3.83,5.83L717.9,430.91a6.16,6.16,0,0,1-8.11-3.41,6.35,6.35,0,0,1,3.35-8.25l48.8-20.5a6.17,6.17,0,0,1,8.11,3.41A6.42,6.42,0,0,1,770.52,404.57Z" transform="translate(-223.5 -10.91)"/><path class="cls-5" d="M750.09,373.55a6.33,6.33,0,0,1-1.82,4.46l-37.34,37.9a6.16,6.16,0,0,1-8.78,0,6.37,6.37,0,0,1,0-8.92l37.34-37.9a6.13,6.13,0,0,1,8.78,0A6.3,6.3,0,0,1,750.09,373.55Z" transform="translate(-223.5 -10.91)"/><path class="cls-5" d="M719.53,352.81a6.44,6.44,0,0,1-.48,2.42l-20.21,49.51a6.18,6.18,0,0,1-8.11,3.42,6.34,6.34,0,0,1-3.36-8.24l20.21-49.52a6.18,6.18,0,0,1,8.11-3.42A6.33,6.33,0,0,1,719.53,352.81Z" transform="translate(-223.5 -10.91)"/></svg>